<svg width="109" height="119" viewBox="0 0 109 119" fill="none" xmlns="http://www.w3.org/2000/svg">
<path d="M31.4817 84.4293C32.3122 84.4754 33.1436 84.5115 33.9734 84.5698C36.0262 84.7163 38.0721 84.9294 40.0965 85.3369C41.5246 85.6241 42.9233 86.0154 44.2742 86.5795C46.6693 87.5788 48.6712 89.1316 50.378 91.1066C51.6519 92.5801 52.7572 94.1791 53.7516 95.8553C54.5811 97.2547 55.3637 98.6825 56.1682 100.099C56.21 100.172 56.2519 100.246 56.3257 100.375C56.3369 100.191 56.3465 100.069 56.3517 99.9479C56.434 97.9488 56.5521 95.9527 56.7889 93.9669C57.0054 92.1548 57.3254 90.3658 57.8589 88.6221C58.7812 85.6055 60.4518 83.105 62.778 81.0465C64.1915 79.7962 65.7154 78.7009 67.3177 77.7218C68.6874 76.8847 70.0858 76.0957 71.4716 75.2856C71.5306 75.2509 71.5888 75.2149 71.6905 75.1532C71.5753 75.1398 71.5047 75.1276 71.434 75.1237C69.2239 75.0036 67.0174 74.8482 64.8235 74.521C63.2134 74.2809 61.6245 73.9451 60.0736 73.4218C57.4375 72.5346 55.1764 71.0499 53.2714 68.9816C51.9632 67.5619 50.85 65.9929 49.8202 64.3588C48.8342 62.7944 47.9306 61.181 47.0547 59.5508C46.9972 59.4435 46.9356 59.3385 46.8448 59.1773C46.8352 59.3269 46.8282 59.4113 46.8245 59.4961C46.7221 61.8932 46.5818 64.287 46.2396 66.6611C46.0249 68.1514 45.7213 69.6197 45.2721 71.054C44.3665 73.946 42.7666 76.3627 40.5499 78.3642C39.0963 79.6768 37.5171 80.8141 35.8554 81.8296C34.4337 82.6986 32.9817 83.5158 31.5428 84.3551C31.5194 84.3654 31.4949 84.373 31.4698 84.3776L31.4817 84.4293Z" fill="#F3EEEA"/>
<path d="M83.3402 34.6496C82.9878 34.6267 82.6357 34.6038 82.2838 34.5808C80.9088 34.4882 79.5417 34.3388 78.1876 34.0567C75.7034 33.5372 73.6936 32.2459 72.1581 30.1828C71.2369 28.9484 70.4528 27.6286 69.7123 26.2789C69.6043 26.0805 69.4934 25.8828 69.3514 25.626C69.3375 25.7752 69.3257 25.8609 69.3216 25.9473C69.2493 27.4741 69.1572 28.9988 68.889 30.5044C68.722 31.4411 68.4838 32.3556 68.1164 33.2312C67.4761 34.7562 66.4482 35.9621 65.1885 36.9796C63.9601 37.9718 62.6144 38.778 61.2467 39.5494C61.0631 39.6532 60.8809 39.7592 60.6352 39.9003C60.8005 39.9148 60.8946 39.9254 60.989 39.9308C62.4344 40.0168 63.8778 40.1269 65.3061 40.3942C66.085 40.5363 66.8511 40.7467 67.5958 41.0232C69.3154 41.6724 70.6749 42.8095 71.8035 44.264C72.7784 45.5221 73.579 46.8943 74.3454 48.2887C74.4533 48.4871 74.5633 48.685 74.7077 48.9467C74.7197 48.7794 74.7287 48.6833 74.7334 48.5872C74.8091 47.0073 74.9055 45.4325 75.1975 43.8784C75.3983 42.8098 75.6972 41.7749 76.1818 40.8036C76.8454 39.4743 77.8177 38.4182 78.9579 37.5082C80.1441 36.5627 81.4385 35.7894 82.7521 35.0429C82.9538 34.9283 83.1564 34.815 83.3588 34.7008L83.3402 34.6496Z" fill="#F3EEEA"/>
<path d="M23.5859 41.6164C23.6015 41.4272 23.6103 41.3081 23.6213 41.1895C23.7074 40.2654 23.7628 39.3368 23.8869 38.418C24.0301 37.3669 24.35 36.3691 24.9315 35.4777C25.3787 34.7931 25.9483 34.2316 26.5835 33.7336C27.4019 33.0931 28.2899 32.5683 29.1889 32.0588C29.2766 32.0093 29.362 31.9552 29.4479 31.9035C29.4531 31.9004 29.4515 31.8868 29.4588 31.8465C29.3524 31.8363 29.2474 31.8228 29.1419 31.8165C28.1407 31.7573 27.1432 31.667 26.1555 31.4728C24.5794 31.163 23.2176 30.4589 22.1751 29.1803C21.8527 28.7929 21.5527 28.3867 21.2764 27.964C20.8774 27.3387 20.5156 26.6885 20.1387 26.0485C20.0778 25.9449 20.0183 25.8406 19.9115 25.7516C19.9021 25.9219 19.8917 26.092 19.8829 26.2624C19.8277 27.3044 19.7384 28.3418 19.5378 29.3657C19.2039 31.0551 18.3744 32.4178 17.0387 33.465C16.1889 34.1315 15.2724 34.6865 14.3389 35.217C14.2435 35.2709 14.1491 35.3274 14.0271 35.3985C14.1448 35.4836 14.2554 35.4579 14.3548 35.4688C15.2406 35.564 16.1304 35.6278 17.0111 35.7615C17.5598 35.8444 18.1019 36.0016 18.6297 36.1805C19.7699 36.5673 20.6841 37.2976 21.4483 38.2356C22.2124 39.1735 22.8133 40.2221 23.3971 41.2807C23.4462 41.3698 23.4972 41.4585 23.5859 41.6164Z" fill="#F3EEEA"/>
</svg>
