<svg width="60" height="60" viewBox="0 0 60 60" fill="none" xmlns="http://www.w3.org/2000/svg">
<circle cx="30" cy="30" r="30" fill="black"/>
<path d="M20.5188 25.706C20.2305 24.7735 20.2626 24.0661 20.6148 23.616C20.9671 23.198 21.4475 23.005 22.024 22.9729C23.0167 22.9407 23.4011 23.6481 23.9775 25.4809C24.3298 26.6384 25.0343 28.3133 25.4507 29.2458C25.9951 30.3712 26.7637 31.8824 27.116 32.3998C27.4042 32.85 27.6604 32.9786 27.9486 32.9786C28.4611 32.9786 28.8454 32.6892 28.8454 32.1747C28.8454 31.8853 28.5571 31.403 28.397 31.1136C28.1088 30.567 27.5003 29.4738 27.084 28.5413C26.6356 27.5124 26.1232 26.2263 25.7069 25.0658C25.4507 24.3906 25.1624 23.426 24.8742 22.4613C24.4259 20.9823 24.2017 20.082 24.2017 19.4038C24.2017 18.3749 24.9703 17.6996 26.1232 17.6996C26.9559 17.6996 27.5003 18.1176 27.8526 19.6289C28.1408 21.0115 28.6532 23.2652 29.3898 25.0336C29.8702 26.1912 30.5747 27.7375 30.9911 28.5092C31.2473 28.9593 31.5355 29.3452 31.5355 29.506C31.5355 29.731 31.1192 30.0847 30.7669 30.567C30.5427 30.8564 30.4466 31.0493 30.4466 31.2744C30.4466 31.4673 30.5747 31.6603 30.7669 31.9175C30.959 32.1747 31.1512 32.432 31.3754 32.432C31.5355 32.432 31.6316 32.3677 31.7276 32.239C32.7204 30.985 33.8093 30.1169 35.0612 29.4066C36.5343 28.5706 38.0424 28.1526 39.2274 27.8953C39.8038 27.7667 39.964 27.6381 39.964 27.3166C39.964 26.9307 39.6757 26.7056 39.2914 26.6735C39.0032 26.6413 38.747 26.6735 38.2986 26.7056C37.9784 26.7378 37.8183 26.577 37.6261 26.159C37.0497 24.9372 35.9288 22.8764 35.2562 20.2398C34.968 19.1144 34.7118 17.9247 34.5517 16.3784C34.4556 15.671 34.5837 15.4138 34.936 15.0923C35.3843 14.7064 36.185 14.5456 36.7935 14.7064C37.53 14.8993 37.9143 15.4781 38.2986 17.7318C38.4908 18.7929 38.8111 20.1433 39.1954 21.3038C39.6757 22.7829 40.2842 24.0077 41.213 25.6475C41.7254 26.5478 42.3659 27.4803 43.0384 28.3835C42.9103 28.7693 42.6861 29.0266 41.9495 29.6375C41.213 30.2484 40.4764 30.8915 39.8038 32.0812C39.3235 32.9493 39.0993 33.914 39.0993 34.557C39.0993 35.168 39.2274 35.2966 39.6117 35.2966C40.2842 35.2966 40.8286 35.168 40.8607 34.8786C41.0208 33.721 41.213 32.9815 41.8535 32.1104C42.2378 31.6281 42.9103 31.0172 43.4547 30.5349C44.4795 29.6989 44.8318 29.2166 45.1841 28.0269C45.3442 27.4803 45.5364 26.9658 45.7926 26.4835C46.4011 25.3581 47.4899 24.072 49.1902 24.072C49.7346 24.072 50.183 24.2327 50.4712 24.6829C50.6313 24.9401 50.6954 25.2938 50.6954 25.551C50.6954 26.1298 50.279 26.9337 50.0869 27.3195C49.3823 28.8307 48.2294 31.1487 48.2294 33.8175C48.2294 39.6403 46.1798 42.537 44.5756 44.0161C43.0064 45.4952 40.5375 46.7843 37.6232 46.7843C35.5416 46.7843 33.393 46.1733 31.6316 45.0158C29.1656 43.376 27.6255 40.8007 26.0562 38.2284C24.8073 36.1384 23.9426 34.4956 22.5946 31.3124C21.8347 29.468 21.1273 27.6673 20.5188 25.706Z" fill="#D8D4F2"/>
<path d="M28.7539 14.9288C28.7539 13.7069 29.8748 13.2246 30.8035 13.2246C31.7963 13.2246 32.1486 13.7069 32.4048 14.7358C32.629 15.5718 32.725 16.3435 32.8211 17.2438C32.9492 18.1441 33.3976 20.2049 33.5257 20.7194C34.0061 22.4878 34.9668 24.5808 36.1197 27.0888C35.4472 27.3138 34.5505 27.6997 33.942 28.0212C33.1734 28.4392 33.0133 28.4392 32.693 27.8283C32.0205 26.5743 31.5401 25.6418 31.1238 24.5457C30.7715 23.6454 30.4192 22.6165 30.131 21.4238C29.6506 19.3981 29.5866 18.8194 29.2023 17.884C28.9781 16.9223 28.7539 15.7326 28.7539 14.9288Z" fill="#D8D4F2"/>
<path d="M17.2831 36.4657C16.6047 36.8866 13.0091 38.7778 12.1968 39.0789C11.6175 39.2952 10.9886 39.2426 10.6189 38.1435C10.1647 36.7843 10.8023 36.4627 11.7106 36.109C12.5142 35.7963 15.8477 34.5861 16.6222 34.3757C17.1666 34.2295 17.5451 34.4137 17.8071 35.0714C18.0953 35.7934 17.8974 36.0827 17.2831 36.4657Z" fill="#D8D4F2"/>
<path d="M14.3209 28.8047C13.3543 28.831 9.33949 28.6586 8.42241 28.5679C7.62468 28.489 7.30152 28.1353 7.38886 26.9749C7.48203 25.7296 7.96532 25.6536 8.74848 25.7296C9.65684 25.8173 13.8638 26.5042 14.5334 26.7118C15.2263 26.9281 15.3224 27.2438 15.238 27.8518C15.1303 28.641 14.7751 28.7901 14.3209 28.8047Z" fill="#D8D4F2"/>
<path d="M14.818 20.6433C13.7117 20.2925 10.4276 18.296 9.57169 17.7816C8.79726 17.3139 8.69827 16.8929 9.23688 15.8669C9.71435 14.9608 10.2442 14.8029 11.0303 15.2122C11.9416 15.6886 15.1587 18.2025 15.773 18.6994C16.3669 19.1788 16.2854 19.4273 15.9738 20.044C15.6623 20.6608 15.3712 20.8186 14.818 20.6433Z" fill="#D8D4F2"/>
</svg>
