<svg width="60" height="60" viewBox="0 0 60 60" fill="none" xmlns="http://www.w3.org/2000/svg">
<path d="M30 60C46.5685 60 60 46.5685 60 30C60 13.4315 46.5685 0 30 0C13.4315 0 0 13.4315 0 30C0 46.5685 13.4315 60 30 60Z" fill="black"/>
<path d="M29.9983 14.5158C35.0427 14.5158 35.6383 14.5158 37.6294 14.6269C38.8284 14.6392 40.0163 14.8587 41.1405 15.2758C41.9539 15.5909 42.6926 16.0722 43.3094 16.6891C43.9262 17.3059 44.4076 18.0446 44.7227 18.858C45.1398 19.9822 45.3593 21.1701 45.3716 22.3691C45.4649 24.3602 45.4827 24.9558 45.4827 30.0002C45.4827 35.0447 45.4827 35.6402 45.3716 37.6313C45.3593 38.8304 45.1398 40.0182 44.7227 41.1424C44.4076 41.9558 43.9262 42.6946 43.3094 43.3114C42.6926 43.9282 41.9539 44.4095 41.1405 44.7247C40.0163 45.1418 38.8284 45.3613 37.6294 45.3736C35.6383 45.4669 35.0427 45.4847 29.9983 45.4847C24.9538 45.4847 24.3583 45.4847 22.3672 45.3736C21.1681 45.3613 19.9803 45.1418 18.856 44.7247C18.0426 44.4095 17.3039 43.9282 16.6871 43.3114C16.0703 42.6946 15.5889 41.9558 15.2738 41.1424C14.8567 40.0182 14.6372 38.8304 14.6249 37.6313C14.5316 35.6402 14.5138 35.0447 14.5138 30.0002C14.5138 24.9558 14.5138 24.3602 14.6249 22.3691C14.6372 21.1701 14.8567 19.9822 15.2738 18.858C15.5889 18.0446 16.0703 17.3059 16.6871 16.6891C17.3039 16.0722 18.0426 15.5909 18.856 15.2758C19.9803 14.8587 21.1681 14.6392 22.3672 14.6269C24.3583 14.5336 24.9538 14.5158 29.9983 14.5158ZM29.9983 11.1113C24.8694 11.1113 24.2205 11.1336 22.2116 11.2269C20.6433 11.2599 19.0921 11.5605 17.6249 12.1158C16.371 12.5988 15.2318 13.3386 14.2804 14.2877C13.3291 15.2367 12.5866 16.3741 12.1005 17.6269C11.5452 19.094 11.2446 20.6452 11.2116 22.2136C11.1316 24.2269 11.1094 24.8891 11.1094 30.0002C11.1094 35.1113 11.1316 35.778 11.2249 37.7869C11.258 39.3552 11.5586 40.9064 12.1138 42.3735C12.5983 43.6288 13.3402 44.7688 14.2916 45.7202C15.243 46.6716 16.383 47.4135 17.6383 47.898C19.1054 48.4532 20.6566 48.7539 22.2249 48.7869C24.2383 48.8802 24.8916 48.9024 30.0116 48.9024C35.1316 48.9024 35.7894 48.9024 37.7983 48.7869C39.3666 48.7539 40.9178 48.4532 42.3849 47.898C43.6402 47.4135 44.7802 46.6716 45.7316 45.7202C46.683 44.7688 47.4249 43.6288 47.9094 42.3735C48.4646 40.9064 48.7652 39.3552 48.7983 37.7869C48.8916 35.7735 48.9138 35.1202 48.9138 30.0002C48.9138 24.8802 48.9138 24.2224 48.7983 22.2136C48.7652 20.6452 48.4646 19.094 47.9094 17.6269C47.4234 16.3703 46.6795 15.2295 45.7257 14.278C44.7719 13.3265 43.6293 12.5854 42.3716 12.1024C40.9045 11.5472 39.3533 11.2466 37.7849 11.2136C35.7716 11.1336 35.1094 11.1113 29.9983 11.1113Z" fill="#D8D4F2"/>
<path d="M30.0025 20.3022C28.0844 20.3022 26.2095 20.871 24.6147 21.9366C23.0199 23.0022 21.7769 24.5168 21.0429 26.2888C20.3089 28.0609 20.1168 30.0108 20.491 31.892C20.8652 33.7732 21.7888 35.5011 23.1451 36.8574C24.5014 38.2136 26.2293 39.1373 28.1105 39.5115C29.9917 39.8857 31.9416 39.6936 33.7136 38.9596C35.4857 38.2256 37.0003 36.9826 38.0659 35.3878C39.1315 33.793 39.7002 31.9181 39.7002 30C39.7002 27.428 38.6785 24.9613 36.8598 23.1427C35.0411 21.324 32.5745 20.3022 30.0025 20.3022ZM30.0025 36.3022C28.7571 36.3022 27.5396 35.933 26.5041 35.2412C25.4685 34.5494 24.6613 33.5661 24.1845 32.4155C23.7077 31.265 23.5827 29.999 23.8254 28.7775C24.068 27.5559 24.6674 26.4338 25.5477 25.5528C26.428 24.6719 27.5498 24.0717 28.7711 23.8282C29.9925 23.5847 31.2586 23.7088 32.4094 24.1848C33.5603 24.6608 34.5442 25.4673 35.2367 26.5024C35.9293 27.5375 36.2994 28.7546 36.3002 30C36.2991 31.6699 35.6352 33.2711 34.4544 34.4519C33.2736 35.6327 31.6724 36.2966 30.0025 36.2978V36.3022Z" fill="#D8D4F2"/>
<path d="M40.087 22.1823C41.3388 22.1823 42.3536 21.1674 42.3536 19.9156C42.3536 18.6637 41.3388 17.6489 40.087 17.6489C38.8351 17.6489 37.8203 18.6637 37.8203 19.9156C37.8203 21.1674 38.8351 22.1823 40.087 22.1823Z" fill="#D8D4F2"/>
</svg>
