<svg width="60" height="60" viewBox="0 0 60 60" fill="none" xmlns="http://www.w3.org/2000/svg">
<path d="M30 60C46.5685 60 60 46.5685 60 30C60 13.4315 46.5685 0 30 0C13.4315 0 0 13.4315 0 30C0 46.5685 13.4315 60 30 60Z" fill="black"/>
<path fill-rule="evenodd" clip-rule="evenodd" d="M44.4307 15.938C41.1686 12.6676 36.8283 10.6952 32.2193 10.3887C27.6103 10.0821 23.047 11.4624 19.3806 14.2721C15.7141 17.0818 13.1947 21.1291 12.2921 25.6592C11.3896 30.1894 12.1654 34.8933 14.4751 38.8936L11.7773 48.7514L21.8618 46.0847C24.6492 47.62 27.7773 48.4314 30.9596 48.4447C34.7232 48.445 38.4025 47.3293 41.5322 45.2387C44.6618 43.1481 47.1013 40.1765 48.5422 36.6996C49.9831 33.2227 50.3608 29.3966 49.6273 25.705C48.8939 22.0135 47.0824 18.6223 44.4218 15.9603L44.4307 15.938ZM30.964 45.2092C28.1302 45.2047 25.3498 44.4371 22.9151 42.9869L22.3373 42.6447L16.3685 44.2314L17.964 38.3958L17.5907 37.8003C15.7263 34.8298 14.9019 31.3239 15.2473 27.8339C15.5926 24.3438 17.088 21.0675 19.4984 18.52C21.9088 15.9725 25.0975 14.2983 28.5631 13.7606C32.0288 13.2229 35.5748 13.8523 38.6438 15.5497C41.7128 17.2471 44.1306 19.9163 45.5172 23.1376C46.9038 26.359 47.1804 29.9498 46.3037 33.3456C45.427 36.7413 43.4466 39.7494 40.6739 41.8969C37.9011 44.0445 34.4933 45.2096 30.9862 45.2092H30.964ZM39.644 33.3647C39.1684 33.1292 36.8307 31.978 36.3951 31.818C35.9596 31.658 35.6396 31.5825 35.324 32.058C35.0084 32.5336 34.0973 33.6047 33.8173 33.9203C33.5373 34.2358 33.2618 34.2803 32.7862 34.0403C31.3838 33.4834 30.0901 32.6846 28.964 31.6803C27.9235 30.7202 27.0322 29.6102 26.3196 28.3869C26.0396 27.9114 26.2884 27.6536 26.5284 27.418C26.7684 27.1825 27.004 26.8625 27.2396 26.5869C27.4366 26.3419 27.5969 26.0694 27.7151 25.778C27.7768 25.6468 27.8053 25.5024 27.7984 25.3575C27.7914 25.2126 27.7491 25.0717 27.6751 24.9469C27.5551 24.7069 26.604 22.3692 26.2085 21.418C25.8129 20.4669 25.4307 20.6136 25.1418 20.6003C24.8529 20.5869 24.5462 20.6003 24.2262 20.6003C23.9855 20.6071 23.7488 20.6635 23.5308 20.766C23.3129 20.8685 23.1184 21.0148 22.9596 21.1958C22.4226 21.7051 21.9975 22.3206 21.7113 23.0032C21.4252 23.6857 21.2842 24.4203 21.2973 25.1603C21.2973 27.5025 22.9996 29.7603 23.2396 30.0803C23.4796 30.4003 26.5907 35.1958 31.3596 37.2536C32.2452 37.634 33.1501 37.9678 34.0707 38.2536C35.0408 38.5492 36.0664 38.6147 37.0662 38.4447C37.9818 38.3069 39.8796 37.2936 40.2751 36.1825C40.6707 35.0714 40.6751 34.1203 40.5551 33.9203C40.4351 33.7203 40.1196 33.6047 39.644 33.3647Z" fill="#D8D4F2"/>
</svg>
