<svg width="385" height="15" viewBox="0 0 385 15" fill="none" xmlns="http://www.w3.org/2000/svg">
<path d="M366.174 13.9345C368.814 13.9103 374.83 14.1765 375.593 14.3464C377.091 14.6827 381.98 14.3928 383.563 13.8752C384.972 13.4114 385.176 13.02 384.836 11.4292C384.315 8.94641 383.036 8.62135 373.666 8.59794C369.336 8.5869 365.508 8.55856 365.139 8.52472C364.77 8.49087 363.385 8.42589 362.009 8.36807C360.634 8.31025 359.19 8.17408 358.733 8.05533C358.276 7.93657 357.244 8.39084 356.398 9.08608C355.432 9.8813 355.094 9.96676 355.454 9.32435C356.179 8.03973 355.753 7.90443 350.754 7.82436C348.557 7.78818 346.574 7.55977 346.342 7.31443C345.717 6.64899 339.819 6.78907 339.372 7.4825C339.182 7.77799 338.629 7.69525 338.085 7.28957C337.541 6.88388 336.05 6.61415 334.706 6.66108C333.362 6.70802 331.511 6.57552 330.558 6.36763C329.604 6.15973 327.919 6.18198 326.739 6.4307C325.56 6.67943 324.753 6.69276 324.898 6.46931C325.044 6.24586 324.073 6.10565 322.834 6.14957C321.595 6.19349 320.225 6.05284 319.9 5.84926C319.548 5.62644 318.55 5.595 317.519 5.77539C316.489 5.95578 315.368 5.96583 314.832 5.79741C313.807 5.47957 310.79 5.33708 302.104 5.19702C298.709 5.14154 293.692 4.8956 290.762 4.63809C287.894 4.39359 284.857 4.40288 284.084 4.66697C283.268 4.95156 282.386 4.87609 282.025 4.49233C281.664 4.10858 280.63 3.99911 279.561 4.24624C278.493 4.49336 277.377 4.55419 276.897 4.39057C276.017 4.08955 274.805 4.03591 270.234 4.09344C268.91 4.10988 267.392 3.95003 266.737 3.72564C266.083 3.50124 265.298 3.53465 264.92 3.80799C264.542 4.08133 263.049 4.04842 261.615 3.76787C260.181 3.48733 257.762 3.3028 256.326 3.36566C254.889 3.42852 248.549 3.30008 242.335 3.0798C236.122 2.85953 228.68 2.73306 225.871 2.79441C223.007 2.85768 220.083 2.77783 219.227 2.61264C217.612 2.30239 202.433 2.17504 201.344 2.46162C201.035 2.54393 200.125 2.50985 199.393 2.39077C198.661 2.27168 197.229 2.30668 196.318 2.46455C195.408 2.62242 194.162 2.44147 193.645 2.07631C193.017 1.63754 192.645 1.76972 192.593 2.45553C192.544 3.06964 191.581 3.70451 190.297 3.9664C187.626 4.50897 187.643 3.95628 190.328 3.30765C192.797 2.70748 190.88 1.98586 187.732 2.33022C186.43 2.47338 185.325 2.33934 185.157 2.0206C185 1.72709 183.783 1.73268 182.585 2.021C178.149 3.10532 176.861 3.21659 176.964 2.48823C177.103 1.52458 170.575 1.71082 169.942 2.68869C169.64 3.15644 168.883 3.31349 168.141 3.05475C167.399 2.79601 167.228 2.45128 167.738 2.21658C169.181 1.55563 167.481 1.34697 164.455 1.81258C162.887 2.05466 161.163 2.07507 160.539 1.85655C159.869 1.62806 159.38 1.88172 159.319 2.49412C159.264 3.03609 158.887 3.40047 158.512 3.27201C158.103 3.13192 157.86 2.69741 157.924 2.22773C158.004 1.67005 156.845 1.48752 154.12 1.63132C151.928 1.74801 149.768 1.68998 149.213 1.49932C148.687 1.32014 146.937 1.34947 145.488 1.56223C144.04 1.775 142.34 1.65618 141.869 1.3089C141.354 0.929248 140.739 1.03224 140.405 1.54565C140.072 2.05906 139.424 2.15155 138.857 1.75492C138.29 1.3583 137.488 1.25056 136.961 1.49238C136.435 1.73419 135.291 1.65898 134.38 1.34752C133.469 1.03607 132.783 1.08752 132.851 1.45663C132.918 1.82573 132.177 2.26873 131.262 2.42638C129.82 2.6776 129.725 2.60361 130.669 1.9421C131.655 1.24433 131.342 1.15016 127.561 1.05441C125.276 0.995087 122.422 1.11608 121.337 1.31639C120.19 1.52625 119.207 1.47642 119.042 1.19935C118.876 0.922275 118.525 1.06325 118.265 1.46105C118.005 1.85885 117.643 1.95218 117.487 1.64971C117.331 1.34723 116.633 1.17248 115.964 1.27186C115.295 1.37124 112.625 1.29078 110.123 1.10134C106.755 0.847234 105.472 1.03728 105.381 1.7999C105.286 2.61063 105.096 2.60746 104.536 1.78004C103.792 0.683635 100.936 0.17361 100.377 1.03811C100.205 1.31424 99.4622 1.35745 98.8002 1.13157C97.645 0.741493 70.5601 0.529942 69.1518 0.906227C68.83 0.990186 65.2015 0.973313 61.1317 0.87322C57.062 0.773127 52.3553 0.834519 50.7477 1.01525C48.8165 1.20205 46.8532 1.22459 44.8993 1.08238C43.2781 0.939135 41.856 1.02849 41.6915 1.28587C41.4415 1.6729 39.1702 1.59624 35.8664 1.08912C35.1765 0.985449 33.1503 1.07614 31.5034 1.28088C29.8566 1.48562 27.9088 1.4946 27.311 1.28964C26.7132 1.08469 25.6453 1.04218 25.0553 1.18563C24.4314 1.33874 19.2784 1.46039 13.6304 1.45593C2.3329 1.44806 -0.0794612 2.29337 0.44023 6.08852C0.928477 9.7037 5.12912 10.0681 34.0485 9.03828C39.214 8.85321 43.8308 8.53394 44.2982 8.32646C44.8062 8.10064 45.353 8.06635 45.6646 8.24014C46.8466 8.90989 55.1325 8.52067 55.0035 7.80292C54.9175 7.32293 55.1539 7.2979 55.5706 7.74262C56.2284 8.43985 85.1551 8.4927 89.0322 7.80475C90.034 7.62641 94.4945 7.63 98.9166 7.81146C103.339 7.99291 107.789 7.94215 108.778 7.70481C109.79 7.45737 111.276 7.50679 112.184 7.81698C113.092 8.12716 113.958 8.11661 114.167 7.79616C114.376 7.47571 115.038 7.38723 115.698 7.6164C117.598 8.26537 122.151 7.99142 121.815 7.24616C121.639 6.85856 121.819 6.88707 122.249 7.31557C123.064 8.12556 133.147 8.1695 134.919 7.36992C135.54 7.08977 136.321 7.11231 136.61 7.42093C136.9 7.72955 138.486 7.87454 140.093 7.7331C142.033 7.58824 143.995 7.58729 145.948 7.73026C147.569 7.87351 148.957 7.66469 149.079 7.25492C149.194 6.87623 149.75 6.84574 150.231 7.19577C150.761 7.57832 151.856 7.71976 152.785 7.53805C154.389 7.21236 155.182 7.26014 158.707 7.8976C159.621 8.06438 161.694 8.03533 163.434 7.84835C165.174 7.66137 166.642 7.70887 166.782 7.97469C166.923 8.2405 168.416 8.33518 170.11 8.19888C175.007 7.80831 175.826 7.50026 175.648 6.12122C175.412 4.33983 176.386 4.89784 177.153 6.98776L177.774 8.67691L180.496 7.74369C182.242 7.15057 183.611 7.10144 184.317 7.61004C184.933 8.05718 185.589 8.14243 185.808 7.80225C186.018 7.47515 186.68 7.54382 187.232 7.93867C187.832 8.36827 188.716 8.37645 189.341 7.95507C189.966 7.53369 190.75 7.49574 191.218 7.85975C191.661 8.20578 196.482 8.53473 201.994 8.59131C207.506 8.64788 212.2 8.75319 212.49 8.82042C213.718 9.10162 223.925 9.039 224.432 8.7435C224.7 8.58073 225.489 8.6126 226.068 8.81107C226.683 9.02131 231.589 9.24644 236.994 9.31492C242.399 9.3834 249.59 9.47248 253.006 9.51771C256.421 9.56295 259.563 9.7213 259.994 9.86801C260.424 10.0147 261.501 9.89262 262.33 9.61197C263.158 9.33132 264.12 9.33524 264.396 9.61632C264.699 9.93231 265.26 9.98173 265.78 9.7385C266.24 9.52505 267.394 9.58839 268.219 9.86781C269.044 10.1472 270.537 10.2105 271.367 9.99613C272.239 9.76914 275.177 9.79908 277.934 10.0621C280.691 10.325 283.08 10.2915 283.275 9.99064C283.488 9.66361 283.855 9.69067 284.191 10.0564C284.503 10.3987 286.391 10.6238 288.46 10.5654C290.529 10.507 291.882 10.1618 291.535 9.78995C291.188 9.41805 291.171 8.71782 291.469 8.25665C291.957 7.49999 292.118 7.56466 292.754 8.76498C293.526 10.2231 294.818 10.8811 295.341 10.0698C295.522 9.78519 296.336 9.93497 297.139 10.4043C298.02 10.9164 298.793 10.9689 299.072 10.5383C299.333 10.1349 299.656 10.0454 299.808 10.3331C300.1 10.8911 306.472 11.2635 308.845 10.8621C309.752 10.7074 310.828 10.7144 311.358 10.8769C313.8 11.6283 320.226 11.8876 320.115 11.2313C320.042 10.8058 320.399 10.7808 320.955 11.1746C322.197 12.0605 325.576 12.0389 325.42 11.1481C325.345 10.7214 325.66 10.5271 326.156 10.6971C326.272 10.7344 326.377 10.7876 326.464 10.8537C326.551 10.9197 326.619 10.9971 326.664 11.0812C326.708 11.1653 326.728 11.2544 326.723 11.343C326.718 11.4317 326.687 11.5181 326.633 11.597C326.409 11.9437 326.691 12.1756 327.29 12.1404C327.862 12.105 328.281 11.7045 328.211 11.26C328.135 10.749 328.497 10.7433 329.184 11.2408C329.799 11.6902 330.645 11.8853 331.113 11.6891C331.556 11.504 332.427 11.6856 332.977 12.0815C333.528 12.4774 335.119 12.5957 336.396 12.3346C337.674 12.0736 338.975 11.982 339.202 12.1272C340.33 12.8797 343.87 13.0217 344.316 12.3316C344.612 11.8748 345.31 11.8879 346.11 12.3649C347.785 13.3628 354.513 13.7269 355.082 12.8493C355.304 12.5037 355.774 12.5197 356.116 12.8869C356.459 13.2541 357.43 13.4314 358.345 13.2614C359.261 13.0914 360.217 13.2556 360.573 13.6381C360.929 14.0205 361.366 14.0496 361.59 13.7052C361.801 13.3781 362.563 13.3009 363.222 13.5244C363.88 13.7479 365.264 13.942 366.174 13.9345Z" fill="#F93460"/>
</svg>
