<svg width="60" height="60" viewBox="0 0 60 60" fill="none" xmlns="http://www.w3.org/2000/svg">
<path d="M30 60C46.5685 60 60 46.5685 60 30C60 13.4315 46.5685 0 30 0C13.4315 0 0 13.4315 0 30C0 46.5685 13.4315 60 30 60Z" fill="black"/>
<path d="M32.32 25.9064C32.8134 25.3508 33.2089 24.7908 33.7245 24.3153C34.4567 23.6006 35.3239 23.0388 36.2754 22.6626C37.2269 22.2865 38.2437 22.1034 39.2667 22.1241C40.4444 22.1134 41.6182 22.2629 42.7556 22.5686C45.36 23.3197 46.8712 25.1153 47.5956 27.6575C48.076 29.5626 48.2929 31.5246 48.24 33.4886C48.24 37.6308 48.24 41.7775 48.24 45.933C48.24 46.3197 48.1334 46.4219 47.7511 46.4219C45.6134 46.4219 43.48 46.4219 41.3467 46.4219C40.9689 46.4219 40.9023 46.3064 40.9023 45.9508C40.9023 42.0101 40.9023 38.0678 40.9023 34.1241C40.925 33.1335 40.8083 32.1445 40.5556 31.1864C40.0445 29.4086 38.7778 28.5197 36.9245 28.613C34.3956 28.7464 33.0756 29.9997 32.7556 32.573C32.6773 33.1862 32.6387 33.8038 32.64 34.4219C32.64 38.2575 32.64 42.093 32.64 45.9286C32.64 46.3108 32.5423 46.4219 32.1512 46.4219C30.0045 46.4219 27.8534 46.4219 25.7023 46.4219C25.3556 46.4219 25.2578 46.333 25.2578 45.9775C25.2578 38.3804 25.2578 30.7864 25.2578 23.1953C25.2578 22.8219 25.3778 22.7508 25.7334 22.7508C27.7778 22.7508 29.8178 22.7508 31.8623 22.7508C32.2356 22.7508 32.3334 22.8664 32.3067 23.2219C32.3067 24.0886 32.32 24.9997 32.32 25.9064Z" fill="#D8D4F2"/>
<path d="M20.6205 34.5823C20.6205 38.3379 20.6205 42.0979 20.6205 45.8534C20.6205 46.2712 20.5183 46.3957 20.0872 46.3912C17.9494 46.3912 15.8161 46.3912 13.6827 46.3912C13.3405 46.3912 13.2383 46.3112 13.2383 45.9468C13.2383 38.3408 13.2383 30.7364 13.2383 23.1334C13.2383 22.8179 13.3183 22.689 13.6516 22.689C15.8161 22.689 17.9805 22.689 20.1449 22.689C20.5627 22.689 20.6161 22.849 20.6161 23.2045C20.6131 27.003 20.6146 30.7956 20.6205 34.5823Z" fill="#D8D4F2"/>
<path d="M21.208 15.1736C21.2124 16.0179 20.9659 16.8445 20.4999 17.5485C20.0338 18.2525 19.3692 18.8023 18.5902 19.128C17.8113 19.4538 16.9532 19.5409 16.1247 19.3782C15.2962 19.2155 14.5347 18.8105 13.9367 18.2144C13.3388 17.6183 12.9313 16.8581 12.766 16.0301C12.6008 15.2021 12.6851 14.3437 13.0084 13.5637C13.3317 12.7838 13.8794 12.1174 14.582 11.6492C15.2845 11.1809 16.1103 10.9319 16.9547 10.9336C18.079 10.9383 19.1561 11.386 19.9524 12.1798C20.7486 12.9736 21.1998 14.0493 21.208 15.1736Z" fill="#D8D4F2"/>
</svg>
