<svg width="60" height="60" viewBox="0 0 60 60" fill="none" xmlns="http://www.w3.org/2000/svg">
<g clip-path="url(#clip0_636_5696)">
<path d="M58.6885 38.7677C63.5327 22.9231 54.6151 6.15159 38.7705 1.30742C22.9259 -3.53675 6.15439 5.38083 1.31021 21.2254C-3.53396 37.07 5.38363 53.8415 21.2282 58.6857C37.0728 63.5299 53.8443 54.6123 58.6885 38.7677Z" fill="black"/>
<path d="M16.7188 20.1533L30.6147 31.7901L44.5022 20.1533H16.7188Z" fill="#D8D4F2"/>
<path d="M31.278 33.9385C31.1965 34.0115 31.1007 34.0667 30.9967 34.1005H30.937C30.8371 34.1299 30.7341 34.1471 30.6301 34.1516C30.5261 34.1471 30.423 34.1299 30.3232 34.1005H30.2635C30.1609 34.0634 30.0657 34.0086 29.9822 33.9385L15.2422 21.6367V40.9206H45.9754V21.6367L31.278 33.9385Z" fill="#D8D4F2"/>
</g>
<defs>
<clipPath id="clip0_636_5696">
<rect width="60" height="60" fill="white"/>
</clipPath>
</defs>
</svg>
